<?xml version="1.0" encoding="utf-8"?>
<!-- Generator: Adobe Illustrator 16.0.4, SVG Export Plug-In . SVG Version: 6.00 Build 0)  -->
<!DOCTYPE svg PUBLIC "-//W3C//DTD SVG 1.1//EN" "http://www.w3.org/Graphics/SVG/1.1/DTD/svg11.dtd">
<svg version="1.1" id="Layer_1" xmlns="http://www.w3.org/2000/svg" xmlns:xlink="http://www.w3.org/1999/xlink" x="0px" y="0px"
	 width="248.948px" height="113.905px" viewBox="0 0 248.948 113.905" enable-background="new 0 0 248.948 113.905"
	 xml:space="preserve">
<g>
	<g>
		<path fill="#EEEEEE" d="M6.495,107.072v1.213c-0.592-0.495-1.204-0.743-1.837-0.743c-0.697,0-1.285,0.251-1.762,0.751
			c-0.48,0.499-0.721,1.107-0.721,1.828c0,0.713,0.24,1.313,0.721,1.803s1.069,0.733,1.767,0.733c0.36,0,0.667-0.059,0.918-0.176
			c0.141-0.059,0.286-0.138,0.438-0.237c0.15-0.1,0.31-0.22,0.477-0.36v1.235c-0.586,0.331-1.201,0.496-1.846,0.496
			c-0.97,0-1.797-0.338-2.483-1.016c-0.683-0.682-1.024-1.505-1.024-2.469c0-0.864,0.286-1.635,0.857-2.312
			c0.703-0.828,1.613-1.243,2.729-1.243C5.338,106.575,5.927,106.741,6.495,107.072z"/>
		<path fill="#EEEEEE" d="M14.785,110.068c0-0.954,0.35-1.775,1.05-2.461c0.697-0.686,1.535-1.027,2.514-1.027
			c0.967,0,1.796,0.346,2.487,1.037c0.694,0.691,1.042,1.521,1.042,2.491c0,0.976-0.349,1.804-1.046,2.483
			c-0.7,0.683-1.545,1.023-2.536,1.023c-0.876,0-1.663-0.303-2.36-0.91C15.168,112.035,14.785,111.156,14.785,110.068z
			 M15.817,110.082c0,0.75,0.252,1.367,0.756,1.85c0.501,0.484,1.08,0.726,1.736,0.726c0.712,0,1.312-0.246,1.802-0.738
			c0.489-0.498,0.734-1.104,0.734-1.819c0-0.724-0.242-1.33-0.725-1.819c-0.48-0.492-1.075-0.738-1.784-0.738
			c-0.706,0-1.302,0.246-1.789,0.738C16.061,108.767,15.817,109.367,15.817,110.082z"/>
		<path fill="#EEEEEE" d="M30.545,113.492v-7.246l4.948,5.176v-4.715h1.024v7.198l-4.948-5.163v4.75H30.545z"/>
		<path fill="#EEEEEE" d="M45.523,113.492v-7.246l4.948,5.176v-4.715h1.024v7.198l-4.948-5.163v4.75H45.523z"/>
		<path fill="#EEEEEE" d="M64.246,107.67h-2.72v1.63h2.641v0.962h-2.641v2.268h2.72v0.963h-3.744v-6.785h3.744V107.67z"/>
		<path fill="#EEEEEE" d="M77.984,107.072v1.213c-0.592-0.495-1.204-0.743-1.837-0.743c-0.697,0-1.285,0.251-1.762,0.751
			c-0.48,0.499-0.721,1.107-0.721,1.828c0,0.713,0.24,1.313,0.721,1.803s1.069,0.733,1.767,0.733c0.36,0,0.667-0.059,0.918-0.176
			c0.141-0.059,0.286-0.138,0.438-0.237c0.15-0.1,0.31-0.22,0.477-0.36v1.235c-0.586,0.331-1.201,0.496-1.846,0.496
			c-0.97,0-1.797-0.338-2.483-1.016c-0.683-0.682-1.024-1.505-1.024-2.469c0-0.864,0.286-1.635,0.857-2.312
			c0.703-0.828,1.613-1.243,2.729-1.243C76.827,106.575,77.416,106.741,77.984,107.072z"/>
		<path fill="#EEEEEE" d="M88.528,107.67v5.822h-1.024v-5.822h-1.56v-0.963h4.14v0.963H88.528z"/>
		<path fill="#EEEEEE" d="M99.402,106.707v6.785h-1.024v-6.785H99.402z"/>
		<path fill="#EEEEEE" d="M108.413,113.492v-7.246l4.948,5.176v-4.715h1.024v7.198l-4.948-5.163v4.75H108.413z"/>
		<path fill="#EEEEEE" d="M126.951,109.959h2.803v0.225c0,0.51-0.06,0.961-0.18,1.354c-0.117,0.363-0.314,0.703-0.594,1.02
			c-0.629,0.709-1.431,1.062-2.403,1.062c-0.949,0-1.762-0.342-2.439-1.027c-0.677-0.688-1.015-1.515-1.015-2.479
			c0-0.984,0.344-1.82,1.033-2.506c0.688-0.688,1.526-1.032,2.514-1.032c0.529,0,1.025,0.108,1.484,0.325
			c0.439,0.217,0.872,0.568,1.297,1.055l-0.729,0.699c-0.557-0.741-1.235-1.112-2.034-1.112c-0.719,0-1.32,0.248-1.807,0.743
			c-0.486,0.486-0.729,1.096-0.729,1.828c0,0.756,0.271,1.378,0.813,1.867c0.507,0.454,1.056,0.682,1.648,0.682
			c0.504,0,0.956-0.17,1.358-0.51c0.4-0.344,0.625-0.753,0.672-1.23h-1.691V109.959z"/>
		<path fill="#EEEEEE" d="M150.451,107.67v5.822h-1.023v-5.822h-1.561v-0.963h4.141v0.963H150.451z"/>
		<path fill="#EEEEEE" d="M161.325,109.361h2.927v-2.654h1.023v6.785h-1.023v-3.168h-2.927v3.168H160.3v-6.785h1.024V109.361z"/>
		<path fill="#EEEEEE" d="M178.025,107.67h-2.72v1.63h2.642v0.962h-2.642v2.268h2.72v0.963h-3.744v-6.785h3.744V107.67z"/>
		<path fill="#EEEEEE" d="M196.908,113.492v-6.785h1.424c0.683,0,1.222,0.067,1.617,0.202c0.425,0.132,0.811,0.356,1.156,0.673
			c0.699,0.639,1.05,1.478,1.05,2.518c0,1.043-0.364,1.887-1.095,2.531c-0.365,0.322-0.75,0.547-1.15,0.672
			c-0.375,0.127-0.907,0.189-1.596,0.189H196.908z M197.931,112.529h0.462c0.46,0,0.843-0.048,1.147-0.145
			c0.305-0.103,0.58-0.265,0.826-0.488c0.504-0.459,0.756-1.059,0.756-1.797c0-0.744-0.25-1.348-0.748-1.811
			c-0.447-0.413-1.108-0.619-1.981-0.619h-0.462V112.529z"/>
		<path fill="#EEEEEE" d="M210.484,110.068c0-0.954,0.35-1.775,1.051-2.461c0.697-0.686,1.535-1.027,2.514-1.027
			c0.967,0,1.795,0.346,2.486,1.037c0.695,0.691,1.042,1.521,1.042,2.491c0,0.976-0.349,1.804-1.046,2.483
			c-0.7,0.683-1.545,1.023-2.535,1.023c-0.877,0-1.663-0.303-2.36-0.91C210.868,112.035,210.484,111.156,210.484,110.068z
			 M211.517,110.082c0,0.75,0.252,1.367,0.756,1.85c0.5,0.484,1.079,0.726,1.735,0.726c0.712,0,1.312-0.246,1.802-0.738
			c0.489-0.498,0.734-1.104,0.734-1.819c0-0.724-0.242-1.33-0.726-1.819c-0.48-0.492-1.075-0.738-1.784-0.738
			c-0.706,0-1.303,0.246-1.789,0.738C211.759,108.767,211.517,109.367,211.517,110.082z"/>
		<path fill="#EEEEEE" d="M227.875,107.67v5.822h-1.023v-5.822h-1.561v-0.963h4.14v0.963H227.875z"/>
		<path fill="#EEEEEE" d="M241.552,107.718l-0.831,0.492c-0.155-0.27-0.304-0.445-0.444-0.527c-0.146-0.094-0.335-0.141-0.566-0.141
			c-0.284,0-0.52,0.081-0.707,0.241c-0.188,0.158-0.281,0.358-0.281,0.598c0,0.332,0.246,0.598,0.738,0.801l0.676,0.276
			c0.551,0.223,0.954,0.494,1.209,0.815c0.255,0.32,0.383,0.714,0.383,1.18c0,0.624-0.209,1.14-0.625,1.547
			c-0.418,0.41-0.938,0.615-1.56,0.615c-0.589,0-1.075-0.174-1.459-0.523c-0.378-0.348-0.614-0.839-0.708-1.472l1.037-0.229
			c0.047,0.398,0.129,0.674,0.246,0.826c0.211,0.293,0.52,0.439,0.924,0.439c0.318,0,0.584-0.106,0.795-0.321
			c0.211-0.213,0.316-0.484,0.316-0.812c0-0.132-0.019-0.253-0.055-0.362c-0.037-0.11-0.094-0.211-0.172-0.304
			c-0.078-0.092-0.178-0.179-0.301-0.259c-0.123-0.081-0.27-0.157-0.439-0.231l-0.654-0.271c-0.93-0.393-1.394-0.967-1.394-1.723
			c0-0.51,0.194-0.937,0.585-1.279c0.389-0.346,0.874-0.519,1.454-0.519C240.501,106.575,241.113,106.956,241.552,107.718z"/>
	</g>
</g>
<g>
	<path fill="#BABABB" d="M87.633,8.542c0,1.871-1.41,3.997-3.133,4.725L70.667,19.11c-1.723,0.728-3.133-0.207-3.133-2.078V3.401
		C67.534,1.531,69.064,0,70.935,0h13.297c1.871,0,3.401,1.531,3.401,3.401V8.542z"/>
</g>
<g>
	<path fill="#FFFFFF" d="M134.754,22.875c1.33-1.316,3.948-2.395,5.819-2.396l48.979-0.043c1.87-0.001,3.401,1.528,3.401,3.398
		v70.076c0,1.87,1.531,3.401,3.401,3.401h13.296c1.871,0,3.401-1.531,3.401-3.401V23.867c0-1.871,1.53-3.401,3.401-3.401h30.122
		c1.87,0,2.838-1.423,2.148-3.163l-5.588-14.108c-0.689-1.739-2.784-3.163-4.654-3.163H129.616c-1.87,0-4.474,1.092-5.785,2.427
		l-15.302,15.58c-1.311,1.334-2.383,3.958-2.383,5.828v14.444c0,1.871,1.28,4.241,2.844,5.267l32.506,21.324
		c1.563,1.026,1.976,3.127,0.915,4.668l-3.31,4.81c-1.061,1.541-3.459,2.803-5.33,2.805l-33.294,0.026
		c-1.871,0.002-4.473-1.091-5.781-2.428l-4.684-4.787c-1.308-1.337-2.379-3.961-2.379-5.832V23.867c0-1.871-1.41-2.805-3.132-2.075
		l-13.835,5.856c-1.723,0.729-3.132,2.857-3.132,4.728v31.788c0,1.871-1.034,4.53-2.297,5.91l-4.24,4.631
		c-1.263,1.38-3.828,2.509-5.699,2.509H23.5c-1.871,0-3.401-1.53-3.401-3.401V3.434c0-1.871-1.531-3.401-3.401-3.401H3.402
		C1.531,0.032,0,1.563,0,3.434v90.478c0,1.87,1.531,3.401,3.402,3.401h61.534c1.871,0,4.439-1.126,5.707-2.502l4.65-5.045
		c1.268-1.376,3.387-1.419,4.709-0.095l5.228,5.234c1.322,1.324,3.935,2.407,5.805,2.407h52.787c1.871,0,4.409-1.152,5.642-2.56
		l13.111-14.979c1.232-1.408,2.24-4.09,2.24-5.961V59.864c0-1.87-1.284-4.235-2.853-5.254l-32.937-21.389
		c-1.568-1.019-1.765-2.929-0.435-4.246L134.754,22.875z"/>
</g>
<g>
	<path fill="#EAEAE9" d="M164.815,20.453l24.738-0.017c1.87-0.001,3.401,1.528,3.401,3.399v70.076c0,1.87,1.531,3.401,3.401,3.401
		h13.297c1.87,0,3.401-1.531,3.401-3.401V23.867c0-1.871,1.531-3.401,3.401-3.401h30.121c1.87,0,2.838-1.423,2.148-3.163
		l-5.588-14.108c-0.689-1.739-2.784-3.163-4.654-3.163L157.146,0.02"/>
</g>
</svg>
