<?xml version="1.0" encoding="utf-8"?>
<!-- Generator: Adobe Illustrator 16.0.4, SVG Export Plug-In . SVG Version: 6.00 Build 0)  -->
<!DOCTYPE svg PUBLIC "-//W3C//DTD SVG 1.1//EN" "http://www.w3.org/Graphics/SVG/1.1/DTD/svg11.dtd">
<svg version="1.1" id="Layer_1" xmlns="http://www.w3.org/2000/svg" xmlns:xlink="http://www.w3.org/1999/xlink" x="0px" y="0px"
	 width="173.017px" height="113.021px" viewBox="0 0 173.017 113.021" enable-background="new 0 0 173.017 113.021"
	 xml:space="preserve">
<g>
	<g>
		<polygon fill="#AACC05" points="2.253,74.728 144.742,74.728 165.443,19.027 135.532,18.995 101.806,59.276 2.253,59.276 		"/>
		<path fill="#666666" d="M17.826,0v43.284h7.897V23.703h13.745v19.534h7.915V23.703h13.741v19.534h7.896V23.703h13.753v19.534
			h7.902V0H17.826z M39.468,15.793H25.724V7.887h13.745V15.793z M47.388,15.802l-7.92-7.915h21.656v7.915H47.388z M82.773,15.802
			h-13.75l-7.855-7.915h21.605V15.802z"/>
		<path fill="#888888" d="M168.423,15.931h-34.064l-33.885,39.676H2.296C1.032,55.607,0,54.575,0,53.304
			c0-1.281,1.032-2.312,2.296-2.312h96.262l33.885-39.672h40.574L168.423,15.931z"/>
		<path fill="#888888" d="M135.037,17.723L101.5,57.358H1.623c0,0-1.217-0.032-1.217,1.024c0,0.954,1.201,0.94,1.201,0.94h100.781
			l33.759-39.788h29.152l1.825-1.811H135.037z"/>
	</g>
	<g>
		<g>
			<g>
				<g>
					<path fill="#FFFFFF" d="M10.662,112.873l2.25-7.274h1.83l2.261,7.274H15.27l-0.412-1.478h-2.096l-0.417,1.478H10.662z
						 M14.485,110.073l-0.678-2.387l-0.673,2.387H14.485z"/>
					<path fill="#FFFFFF" d="M18.959,112.873v-5.882h-1.98v-1.393h5.633l-0.458,1.393h-1.519v5.882H18.959z"/>
					<path fill="#FFFFFF" d="M39.476,112.873h-1.615l-2.569-5.066v5.066h-1.541v-7.274h2.058l2.134,4.17v-4.17h1.533V112.873z"/>
					<path fill="#FFFFFF" d="M40.125,112.873l2.254-7.274h1.825l2.257,7.274h-1.727l-0.413-1.478h-2.1l-0.413,1.478H40.125z
						 M43.949,110.073l-0.678-2.387l-0.68,2.387H43.949z"/>
					<path fill="#FFFFFF" d="M51.256,112.873H47.13v-7.274h1.675v5.889h2.783L51.256,112.873z"/>
					<path fill="#FFFFFF" d="M70.137,110.644c0,0.36-0.062,0.683-0.188,0.954c-0.129,0.272-0.292,0.497-0.511,0.678
						c-0.253,0.217-0.525,0.368-0.826,0.46c-0.305,0.088-0.686,0.138-1.148,0.138h-2.682v-7.274h2.365
						c0.489,0,0.866,0.024,1.112,0.065c0.257,0.042,0.492,0.129,0.717,0.254c0.241,0.142,0.413,0.331,0.532,0.566
						c0.12,0.229,0.178,0.507,0.178,0.806c0,0.359-0.082,0.668-0.245,0.949c-0.157,0.276-0.387,0.479-0.671,0.607v0.042
						c0.411,0.088,0.745,0.281,0.994,0.576C70.014,109.755,70.137,110.151,70.137,110.644z M67.981,107.654
						c0-0.115-0.024-0.234-0.076-0.364c-0.061-0.119-0.146-0.216-0.258-0.268c-0.109-0.05-0.241-0.083-0.393-0.087
						c-0.151-0.005-0.375-0.005-0.673-0.005H66.46v1.544h0.214c0.284,0,0.488,0,0.6-0.015c0.117-0.005,0.235-0.036,0.356-0.102
						c0.136-0.072,0.225-0.16,0.281-0.28C67.96,107.958,67.981,107.82,67.981,107.654z M68.407,110.612
						c0-0.231-0.038-0.4-0.123-0.53c-0.084-0.129-0.211-0.226-0.379-0.29c-0.103-0.041-0.24-0.068-0.417-0.068
						c-0.176-0.011-0.413-0.011-0.718-0.011h-0.31v1.83h0.092c0.436,0,0.737,0,0.909-0.01c0.165-0.01,0.339-0.046,0.505-0.134
						c0.155-0.069,0.265-0.17,0.34-0.312C68.373,110.948,68.407,110.787,68.407,110.612z"/>
					<path fill="#FFFFFF" d="M77.249,112.873l2.255-7.274h1.832l2.258,7.274h-1.73l-0.419-1.478h-2.096l-0.416,1.478H77.249z
						 M81.071,110.073l-0.672-2.387l-0.681,2.387H81.071z"/>
					<path fill="#FFFFFF" d="M96.153,105.599l-2.308,4.235v3.039h-1.678v-2.947l-2.342-4.327h1.909l1.308,2.608l1.268-2.608H96.153z
						"/>
					<path fill="#FFFFFF" d="M110.541,106.991h-2.465v1.367h2.577v1.393h-2.577v3.122h-1.682v-7.274h4.485L110.541,106.991z"/>
					<path fill="#FFFFFF" d="M135.432,112.873v-7.274h4.521l-0.463,1.393h-2.378v1.275h2.619v1.387h-2.619v1.834h2.841v1.386
						H135.432z"/>
					<path fill="#FFFFFF" d="M140.376,112.873l2.254-7.274h1.83l2.255,7.274h-1.73l-0.412-1.478h-2.096l-0.417,1.478H140.376z
						 M144.2,110.073l-0.677-2.387l-0.678,2.387H144.2z"/>
				</g>
			</g>
			<path fill="#FFFFFF" d="M23.458,112.873v-7.255h1.65v7.255H23.458z"/>
			<path fill="#FFFFFF" d="M61.553,112.873v-7.255h1.653v7.255H61.553z"/>
			<path fill="#FFFFFF" d="M29.677,113.021c-2.189,0-3.419-1.543-3.419-3.723c0-2.4,1.281-3.786,3.361-3.786
				c1.947,0,3.319,1.229,3.319,3.662C32.938,111.469,31.851,113.021,29.677,113.021z M29.588,106.807
				c-1.014,0-1.418,0.884-1.418,2.543c0,1.848,0.463,2.387,1.418,2.387c0.9,0,1.388-0.627,1.388-2.562
				C30.977,107.69,30.657,106.807,29.588,106.807z"/>
			<path fill="#FFFFFF" d="M102.22,113.021c-2.188,0-3.426-1.543-3.426-3.723c0-2.4,1.284-3.786,3.366-3.786
				c1.944,0,3.319,1.229,3.319,3.662C105.48,111.469,104.395,113.021,102.22,113.021z M102.132,106.807
				c-1.015,0-1.428,0.884-1.428,2.543c0,1.848,0.463,2.387,1.428,2.387c0.895,0,1.388-0.627,1.388-2.562
				C103.52,107.69,103.197,106.807,102.132,106.807z"/>
			<path fill="#FFFFFF" d="M124.828,113.021c-2.191,0-3.426-1.543-3.426-3.723c0-2.4,1.283-3.786,3.361-3.786
				c1.948,0,3.318,1.229,3.318,3.662C128.082,111.469,126.997,113.021,124.828,113.021z M124.742,106.807
				c-1.018,0-1.433,0.884-1.433,2.543c0,1.848,0.472,2.387,1.433,2.387c0.892,0,1.38-0.627,1.38-2.562
				C126.122,107.69,125.802,106.807,124.742,106.807z"/>
			<path fill="#FFFFFF" d="M87.861,112.873c-0.311-0.487-0.458-0.699-0.736-1.211c-0.844-1.475-0.983-1.709-1.19-1.709h-0.118v2.92
				h-1.695v-7.25h2.694c0.744,0,1.525,0.133,1.98,0.607c0.452,0.47,0.617,1,0.617,1.595c0,1.008-0.687,1.847-1.414,2.009
				c0.47,0.547,1.737,2.713,1.917,3.039H87.861z M86.401,106.959h-0.597v1.699h0.569c0.944,0,1.241-0.253,1.241-0.833
				C87.615,107.244,87.349,106.959,86.401,106.959z"/>
			<path fill="#FFFFFF" d="M74.828,112.873c-0.313-0.487-0.452-0.699-0.736-1.211c-0.845-1.475-0.986-1.709-1.189-1.709h-0.116v2.92
				h-1.697v-7.25h2.688c0.756,0,1.534,0.133,1.986,0.607c0.452,0.47,0.62,1,0.62,1.595c0,1.008-0.685,1.847-1.417,2.009
				c0.47,0.547,1.741,2.713,1.919,3.039H74.828z M73.368,106.959h-0.597v1.699h0.566c0.951,0,1.241-0.253,1.241-0.833
				C74.579,107.244,74.312,106.959,73.368,106.959z"/>
			<path fill="#FFFFFF" d="M132.677,112.873c-0.317-0.487-0.451-0.699-0.736-1.211c-0.848-1.475-0.984-1.709-1.185-1.709h-0.124
				v2.92h-1.696v-7.25h2.696c0.745,0,1.525,0.133,1.984,0.607c0.447,0.47,0.614,1,0.614,1.595c0,1.008-0.687,1.847-1.415,2.009
				c0.47,0.547,1.736,2.713,1.919,3.039H132.677z M131.214,106.959h-0.594v1.699h0.569c0.944,0,1.243-0.253,1.243-0.833
				C132.433,107.244,132.164,106.959,131.214,106.959z"/>
			<path fill="#FFFFFF" d="M116.355,103.761v4.156l2.69-4.156h2.328l-3.013,4.225l3.356,4.888h-2.499l-2.863-4.753v4.753h-1.939
				v-9.112H116.355z"/>
			<path fill="#FFFFFF" d="M5.797,103.83l1.711,3.645c0.45,0.972,0.791,1.93,0.97,2.589c-0.062-0.714-0.127-1.88-0.137-2.506
				l-0.042-3.728h1.706v9.112H8.136l-1.527-3.486c-0.498-1.143-1.038-2.429-1.207-2.991c0.063,0.747,0.081,1.821,0.09,2.58
				l0.05,3.897H3.815v-9.112H5.797z"/>
			<path fill="#FFFFFF" d="M57.442,103.761v7.594h3.189l-0.319,1.519h-4.705v-9.112H57.442z"/>
		</g>
		<g>
			<path fill="#FFFFFF" d="M55.184,84.181c0.785,1.143,3.218,3.101,8.824,3.101v-2.133c0,0-5.298-0.253-6.532-2.009h6.542v-2.165
				H46.439v2.165h6.478c-1.192,1.834-6.554,1.991-6.554,1.991v2.151C51.971,87.282,54.396,85.324,55.184,84.181z"/>
			<path fill="#FFFFFF" d="M46.121,90.322h8.027v1.032c-1.888,0.378-3.443,1.972-3.443,4.155c0,2.359,2.131,4.28,4.654,4.28
				c2.519,0,4.674-1.921,4.674-4.28c0-2.184-1.557-3.681-3.396-4.132v-1.056h7.743v-2.174H46.121V90.322z M57.468,95.565
				c0,1.11-0.939,2.009-2.101,2.009c-1.157,0-2.089-0.898-2.089-2.009c0-1.102,0.932-1.995,2.089-1.995
				C56.529,93.57,57.468,94.464,57.468,95.565z"/>
			<g>
				<polygon fill="#FFFFFF" points="83.648,80.652 81.135,80.652 81.135,89.981 83.648,89.981 83.648,85.402 85.84,85.402 
					85.84,83.223 83.648,83.223 				"/>
				<path fill="#FFFFFF" d="M77.793,90.714c-2.705,0-4.892,2.041-4.892,4.562c0,2.52,2.187,4.561,4.892,4.561
					c2.7,0,4.89-2.041,4.89-4.561C82.683,92.755,80.494,90.714,77.793,90.714z M77.793,97.583c-1.292,0-2.341-1.036-2.341-2.327
					c0-1.294,1.049-2.33,2.341-2.33c1.296,0,2.345,1.036,2.345,2.33C80.138,96.547,79.089,97.583,77.793,97.583z"/>
				<path fill="#FFFFFF" d="M76.373,85.125c0-2.571-2.189-4.648-4.882-4.648c-2.699,0-4.895,2.077-4.895,4.648
					c0,2.548,2.195,4.63,4.895,4.63C74.183,89.756,76.373,87.673,76.373,85.125z M71.479,87.53c-1.295,0-2.345-1.087-2.345-2.428
					s1.05-2.432,2.345-2.432c1.294,0,2.337,1.091,2.337,2.432S72.773,87.53,71.479,87.53z"/>
			</g>
			<g>
				<path fill="#FFFFFF" d="M27.59,89.963c1.345,0,11.027,0,11.027,0v-2.169c0,0-10.399,0-10.761,0c-0.36,0-0.431-0.134-0.431-0.494
					v-0.912h11.192v-5.726c-1.347,0-13.725,0-13.725,0v2.17c0,0,10.862,0,11.229,0l-0.02,1.516H24.897v0.033h-0.005
					c0,0,0,2.109,0,3.206C24.892,89.535,25.375,89.963,27.59,89.963z"/>
				<path fill="#FFFFFF" d="M40.289,92.948H27.623c0-0.263,0-1.782,0-1.782h-2.532c0,0,0,4.542,0,5.644
					c0,1.953,0.476,2.382,2.694,2.382l15.033-0.01c0-1.092,0-8.016,0-8.016h-2.529C40.289,91.166,40.289,92.686,40.289,92.948z
					 M28.051,96.988c-0.359-0.031-0.429-0.156-0.429-0.516v-1.336h12.666l0.004,1.857L28.051,96.988z"/>
				<path fill="#FFFFFF" d="M11.001,92.446h2.56v-0.539c-0.817,0-1.686,0-2.56,0V92.446z"/>
				<rect x="40.321" y="80.662" fill="#FFFFFF" width="2.503" height="9.296"/>
				<path fill="#FFFFFF" d="M3.393,80.662v2.174h15.146l0.004,3.345h2.517l0.002-5.519H3.393z M3.393,89.332h7.608v2.575
					c-3.718,0-7.608,0-7.608,0v2.212c0,0,14.367,0,14.731,0c0.355,0,0.43,0.138,0.43,0.497c0,0.23,0,4.943,0,4.943h2.5
					c0,0,0-4.174,0-5.267c0-1.952-0.479-2.386-2.696-2.386h-4.87v-2.575h7.876v-2.193H3.393V89.332z"/>
			</g>
			<g>
				<path fill="#FFFFFF" d="M98.203,88.549c3.824,0,6.803,0,6.803,0l-0.007-2.179c-11.904,0-13.733,0-14.14,0
					c-0.352,0-0.414-0.125-0.414-0.479v-2.741h14.54v-2.198H87.921c0,0,0,4.22,0,5.28c0,1.903,0.466,2.317,2.615,2.317h5.16v3.193
					h-7.852v2.174h17.162v-2.174h-6.805V88.549z"/>
				<polygon fill="#FFFFFF" points="138.248,87.319 140.736,87.319 140.741,80.754 128.315,80.754 128.315,82.915 138.248,82.915 
									"/>
				<path fill="#FFFFFF" d="M130.9,96.017c0-0.221,0-3.939,0-3.939l-2.511-0.009c0,0,0,3.253,0,4.308
					c0,1.894,0.466,2.308,2.607,2.308c1.294,0,14.717,0,14.717,0v-2.192c0,0-14.054,0-14.404,0
					C130.964,96.491,130.9,96.371,130.9,96.017z"/>
				<polygon fill="#FFFFFF" points="140.943,88.507 134.769,88.507 134.769,84.822 132.272,84.822 132.272,88.507 127.937,88.507 
					127.937,90.683 140.943,90.683 				"/>
				<polygon fill="#FFFFFF" points="145.283,83.039 145.283,80.629 142.786,80.629 142.786,93.04 145.283,93.04 145.283,85.222 
					147.37,85.222 147.37,83.039 				"/>
				<path fill="#FFFFFF" d="M114.958,81.569v-0.82h-2.524c0,0,0,0.82,0,0.83c0,5.427-3.559,6.454-5.528,7.09v2.327
					c3.405-0.618,5.766-2.612,6.815-4.474c1.046,1.861,3.414,3.855,6.821,4.474v-2.327
					C119.023,88.083,114.897,87.272,114.958,81.569z"/>
				<polygon fill="#FFFFFF" points="122.372,83.398 118.478,83.398 118.478,85.572 122.372,85.572 122.372,94.446 124.88,94.446 
					124.88,80.629 122.372,80.629 				"/>
			</g>
		</g>
	</g>
</g>
</svg>
